{
    "asset" : {
        "generator" : "Khronos glTF Blender I/O v1.7.33",
        "version" : "2.0"
    },
    "scene" : 0,
    "scenes" : [
        {
            "name" : "Scene",
            "nodes" : [
                0,
                1
            ]
        }
    ],
    "nodes" : [
        {
            "mesh" : 0,
            "name" : "Curve.002",
            "rotation" : [
                0.6011702418327332,
                0.37228265404701233,
                -0.3722826838493347,
                0.6011701822280884
            ],
            "scale" : [
                5764.1494140625,
                5764.1484375,
                5764.1484375
            ],
            "translation" : [
                19.776260375976562,
                -10.935043334960938,
                -95.09078979492188
            ]
        },
        {
            "mesh" : 1,
            "name" : "Curve.003",
            "rotation" : [
                0.6011703014373779,
                0.3722826838493347,
                -0.3722827136516571,
                0.6011700630187988
            ],
            "scale" : [
                5764.1494140625,
                5764.1484375,
                5764.1484375
            ],
            "translation" : [
                -30.153583526611328,
                -10.935043334960938,
                5.21441650390625
            ]
        }
    ],
    "materials" : [
        {
            "doubleSided" : true,
            "name" : "stones",
            "pbrMetallicRoughness" : {
                "baseColorTexture" : {
                    "index" : 0
                },
                "metallicFactor" : 0,
                "roughnessFactor" : 0.6000000238418579
            }
        },
        {
            "doubleSided" : true,
            "name" : "swing",
            "pbrMetallicRoughness" : {
                "baseColorTexture" : {
                    "index" : 1
                },
                "metallicFactor" : 0,
                "roughnessFactor" : 0.6000000238418579
            }
        }
    ],
    "meshes" : [
        {
            "name" : "Curve.002",
            "primitives" : [
                {
                    "attributes" : {
                        "POSITION" : 0,
                        "NORMAL" : 1,
                        "TEXCOORD_0" : 2
                    },
                    "indices" : 3,
                    "material" : 0
                }
            ]
        },
        {
            "name" : "Curve.003",
            "primitives" : [
                {
                    "attributes" : {
                        "POSITION" : 4,
                        "NORMAL" : 5,
                        "TEXCOORD_0" : 6
                    },
                    "indices" : 7,
                    "material" : 1
                }
            ]
        }
    ],
    "textures" : [
        {
            "sampler" : 0,
            "source" : 0
        },
        {
            "sampler" : 0,
            "source" : 1
        }
    ],
    "images" : [
        {
            "mimeType" : "image/jpeg",
            "name" : "stones_baseColor",
            "uri" : "stones_baseColor.jpg"
        },
        {
            "mimeType" : "image/jpeg",
            "name" : "swing_baseColor",
            "uri" : "swing_baseColor.jpg"
        }
    ],
    "accessors" : [
        {
            "bufferView" : 0,
            "componentType" : 5126,
            "count" : 88,
            "max" : [
                0.009234199300408363,
                0.0032497502397745848,
                0.018828116357326508
            ],
            "min" : [
                -0.009720230475068092,
                -0.003791373921558261,
                -0.018830079585313797
            ],
            "type" : "VEC3"
        },
        {
            "bufferView" : 1,
            "componentType" : 5126,
            "count" : 88,
            "type" : "VEC3"
        },
        {
            "bufferView" : 2,
            "componentType" : 5126,
            "count" : 88,
            "type" : "VEC2"
        },
        {
            "bufferView" : 3,
            "componentType" : 5123,
            "count" : 132,
            "type" : "SCALAR"
        },
        {
            "bufferView" : 4,
            "componentType" : 5126,
            "count" : 93,
            "max" : [
                0.009718055836856365,
                0.0032497502397745848,
                0.018828116357326508
            ],
            "min" : [
                -0.009233553893864155,
                -0.003791373921558261,
                -0.018830079585313797
            ],
            "type" : "VEC3"
        },
        {
            "bufferView" : 5,
            "componentType" : 5126,
            "count" : 93,
            "type" : "VEC3"
        },
        {
            "bufferView" : 6,
            "componentType" : 5126,
            "count" : 93,
            "type" : "VEC2"
        },
        {
            "bufferView" : 7,
            "componentType" : 5123,
            "count" : 132,
            "type" : "SCALAR"
        }
    ],
    "bufferViews" : [
        {
            "buffer" : 0,
            "byteLength" : 1056,
            "byteOffset" : 0
        },
        {
            "buffer" : 0,
            "byteLength" : 1056,
            "byteOffset" : 1056
        },
        {
            "buffer" : 0,
            "byteLength" : 704,
            "byteOffset" : 2112
        },
        {
            "buffer" : 0,
            "byteLength" : 264,
            "byteOffset" : 2816
        },
        {
            "buffer" : 0,
            "byteLength" : 1116,
            "byteOffset" : 3080
        },
        {
            "buffer" : 0,
            "byteLength" : 1116,
            "byteOffset" : 4196
        },
        {
            "buffer" : 0,
            "byteLength" : 744,
            "byteOffset" : 5312
        },
        {
            "buffer" : 0,
            "byteLength" : 264,
            "byteOffset" : 6056
        }
    ],
    "samplers" : [
        {
            "magFilter" : 9729,
            "minFilter" : 9987
        }
    ],
    "buffers" : [
        {
            "byteLength" : 6320,
            "uri" : "untitled.bin"
        }
    ]
}
