{
	"asset":{
		"generator":"Khronos glTF Blender I/O v3.6.27",
		"version":"2.0"
	},
	"scene":0,
	"scenes":[
		{
			"name":"Scene",
			"nodes":[
				0
			]
		}
	],
	"nodes":[
		{
			"mesh":0,
			"name":"Curve",
			"rotation":[
				0.6123724579811096,
				0.3535533845424652,
				-0.3535534143447876,
				0.6123723983764648
			],
			"scale":[
				1769.8974609375,
				1769.8974609375,
				1769.8973388671875
			],
			"translation":[
				6.282549858093262,
				44.032718658447266,
				-8.322705268859863
			]
		}
	],
	"materials":[
		{
			"doubleSided":true,
			"name":"Material",
			"pbrMetallicRoughness":{
				"baseColorFactor":[
					0.800000011920929,
					0.800000011920929,
					0.800000011920929,
					1
				],
				"metallicFactor":0,
				"roughnessFactor":0.5
			}
		}
	],
	"meshes":[
		{
			"name":"Curve.012",
			"primitives":[
				{
					"attributes":{
						"POSITION":0,
						"NORMAL":1,
						"TEXCOORD_0":2
					},
					"indices":3,
					"material":0
				},
				{
					"attributes":{
						"POSITION":4,
						"NORMAL":5,
						"TEXCOORD_0":6
					},
					"indices":7,
					"material":0
				}
			]
		}
	],
	"accessors":[
		{
			"bufferView":0,
			"componentType":5126,
			"count":686,
			"max":[
				0.0751679539680481,
				0.02322097308933735,
				0.10009922832250595
			],
			"min":[
				-0.050193630158901215,
				0,
				-0.050048209726810455
			],
			"type":"VEC3"
		},
		{
			"bufferView":1,
			"componentType":5126,
			"count":686,
			"type":"VEC3"
		},
		{
			"bufferView":2,
			"componentType":5126,
			"count":686,
			"type":"VEC2"
		},
		{
			"bufferView":3,
			"componentType":5123,
			"count":1038,
			"type":"SCALAR"
		},
		{
			"bufferView":4,
			"componentType":5126,
			"count":608,
			"max":[
				3.766894351997507e-09,
				0.02322097308933735,
				0.10009922087192535
			],
			"min":[
				-0.0751679539680481,
				0,
				-0.0499265193939209
			],
			"type":"VEC3"
		},
		{
			"bufferView":5,
			"componentType":5126,
			"count":608,
			"type":"VEC3"
		},
		{
			"bufferView":6,
			"componentType":5126,
			"count":608,
			"type":"VEC2"
		},
		{
			"bufferView":7,
			"componentType":5123,
			"count":918,
			"type":"SCALAR"
		}
	],
	"bufferViews":[
		{
			"buffer":0,
			"byteLength":8232,
			"byteOffset":0,
			"target":34962
		},
		{
			"buffer":0,
			"byteLength":8232,
			"byteOffset":8232,
			"target":34962
		},
		{
			"buffer":0,
			"byteLength":5488,
			"byteOffset":16464,
			"target":34962
		},
		{
			"buffer":0,
			"byteLength":2076,
			"byteOffset":21952,
			"target":34963
		},
		{
			"buffer":0,
			"byteLength":7296,
			"byteOffset":24028,
			"target":34962
		},
		{
			"buffer":0,
			"byteLength":7296,
			"byteOffset":31324,
			"target":34962
		},
		{
			"buffer":0,
			"byteLength":4864,
			"byteOffset":38620,
			"target":34962
		},
		{
			"buffer":0,
			"byteLength":1836,
			"byteOffset":43484,
			"target":34963
		}
	],
	"buffers":[
		{
			"byteLength":45320,
			"uri":"untitled.bin"
		}
	]
}
