{
	"asset":{
		"generator":"Khronos glTF Blender I/O v3.6.27",
		"version":"2.0"
	},
	"scene":0,
	"scenes":[
		{
			"name":"Scene",
			"nodes":[
				0
			]
		}
	],
	"nodes":[
		{
			"mesh":0,
			"name":"Curve",
			"rotation":[
				0.6123724579811096,
				0.3535533845424652,
				-0.3535534143447876,
				0.6123723983764648
			],
			"scale":[
				960.7267456054688,
				960.724365234375,
				960.724365234375
			]
		}
	],
	"materials":[
		{
			"doubleSided":true,
			"name":"Material.002",
			"pbrMetallicRoughness":{
				"baseColorFactor":[
					0.800000011920929,
					0.800000011920929,
					0.800000011920929,
					1
				],
				"metallicFactor":0,
				"roughnessFactor":0.5
			}
		}
	],
	"meshes":[
		{
			"name":"Curve.001",
			"primitives":[
				{
					"attributes":{
						"POSITION":0,
						"NORMAL":1,
						"TEXCOORD_0":2
					},
					"indices":3,
					"material":0
				}
			]
		}
	],
	"accessors":[
		{
			"bufferView":0,
			"componentType":5126,
			"count":1358,
			"max":[
				0.0751679539680481,
				0.02322097308933735,
				0.10009922832250595
			],
			"min":[
				-0.0751679539680481,
				0,
				-0.050048209726810455
			],
			"type":"VEC3"
		},
		{
			"bufferView":1,
			"componentType":5126,
			"count":1358,
			"type":"VEC3"
		},
		{
			"bufferView":2,
			"componentType":5126,
			"count":1358,
			"type":"VEC2"
		},
		{
			"bufferView":3,
			"componentType":5123,
			"count":1956,
			"type":"SCALAR"
		}
	],
	"bufferViews":[
		{
			"buffer":0,
			"byteLength":16296,
			"byteOffset":0,
			"target":34962
		},
		{
			"buffer":0,
			"byteLength":16296,
			"byteOffset":16296,
			"target":34962
		},
		{
			"buffer":0,
			"byteLength":10864,
			"byteOffset":32592,
			"target":34962
		},
		{
			"buffer":0,
			"byteLength":3912,
			"byteOffset":43456,
			"target":34963
		}
	],
	"buffers":[
		{
			"byteLength":47368,
			"uri":"untitled.bin"
		}
	]
}
