{
    "asset" : {
        "generator" : "Khronos glTF Blender I/O v1.7.33",
        "version" : "2.0"
    },
    "scene" : 0,
    "scenes" : [
        {
            "name" : "Scene",
            "nodes" : [
                0
            ]
        }
    ],
    "nodes" : [
        {
            "mesh" : 0,
            "name" : "Curve",
            "rotation" : [
                0.7071067690849304,
                0,
                0,
                0.7071067690849304
            ],
            "scale" : [
                960.7267456054688,
                960.724365234375,
                960.724365234375
            ],
            "translation" : [
                -1.8696116967475973e-05,
                -25.770992279052734,
                11.13685131072998
            ]
        }
    ],
    "materials" : [
        {
            "doubleSided" : true,
            "name" : "stones",
            "pbrMetallicRoughness" : {
                "baseColorTexture" : {
                    "index" : 0
                },
                "metallicFactor" : 0,
                "roughnessFactor" : 0.6000000238418579
            }
        }
    ],
    "meshes" : [
        {
            "name" : "Curve.001",
            "primitives" : [
                {
                    "attributes" : {
                        "POSITION" : 0,
                        "NORMAL" : 1,
                        "TEXCOORD_0" : 2
                    },
                    "indices" : 3,
                    "material" : 0
                }
            ]
        }
    ],
    "textures" : [
        {
            "sampler" : 0,
            "source" : 0
        }
    ],
    "images" : [
        {
            "mimeType" : "image/jpeg",
            "name" : "stones_baseColor",
            "uri" : "stones_baseColor.jpg"
        }
    ],
    "accessors" : [
        {
            "bufferView" : 0,
            "componentType" : 5126,
            "count" : 1548,
            "max" : [
                0.07516797631978989,
                0.011641926132142544,
                0.07326903194189072
            ],
            "min" : [
                -0.0751679316163063,
                -0.011579046957194805,
                -0.07687840610742569
            ],
            "type" : "VEC3"
        },
        {
            "bufferView" : 1,
            "componentType" : 5126,
            "count" : 1548,
            "type" : "VEC3"
        },
        {
            "bufferView" : 2,
            "componentType" : 5126,
            "count" : 1548,
            "type" : "VEC2"
        },
        {
            "bufferView" : 3,
            "componentType" : 5123,
            "count" : 1956,
            "type" : "SCALAR"
        }
    ],
    "bufferViews" : [
        {
            "buffer" : 0,
            "byteLength" : 18576,
            "byteOffset" : 0
        },
        {
            "buffer" : 0,
            "byteLength" : 18576,
            "byteOffset" : 18576
        },
        {
            "buffer" : 0,
            "byteLength" : 12384,
            "byteOffset" : 37152
        },
        {
            "buffer" : 0,
            "byteLength" : 3912,
            "byteOffset" : 49536
        }
    ],
    "samplers" : [
        {
            "magFilter" : 9729,
            "minFilter" : 9987
        }
    ],
    "buffers" : [
        {
            "byteLength" : 53448,
            "uri" : "untitled.bin"
        }
    ]
}
