{
    "asset" : {
        "generator" : "Khronos glTF Blender I/O v1.7.33",
        "version" : "2.0"
    },
    "scene" : 0,
    "scenes" : [
        {
            "name" : "Scene",
            "nodes" : [
                0,
                1
            ]
        }
    ],
    "nodes" : [
        {
            "mesh" : 0,
            "name" : "Curve",
            "rotation" : [
                0.6011702418327332,
                0.37228265404701233,
                -0.3722826838493347,
                0.6011701822280884
            ],
            "scale" : [
                22.594289779663086,
                22.594289779663086,
                22.594284057617188
            ],
            "translation" : [
                0.2544172406196594,
                -0.24589654803276062,
                0.6507971286773682
            ]
        },
        {
            "mesh" : 1,
            "name" : "Curve.001",
            "rotation" : [
                0.6011702418327332,
                0.37228265404701233,
                -0.3722826838493347,
                0.6011701822280884
            ],
            "scale" : [
                22.594289779663086,
                22.594289779663086,
                22.594284057617188
            ],
            "translation" : [
                0.2544172406196594,
                -0.24589654803276062,
                0.6507971286773682
            ]
        }
    ],
    "materials" : [
        {
            "doubleSided" : true,
            "name" : "Material",
            "pbrMetallicRoughness" : {
                "metallicFactor" : 0,
                "roughnessFactor" : 0.4000000059604645
            }
        }
    ],
    "meshes" : [
        {
            "name" : "Curve",
            "primitives" : [
                {
                    "attributes" : {
                        "POSITION" : 0,
                        "NORMAL" : 1,
                        "TEXCOORD_0" : 2
                    },
                    "indices" : 3,
                    "material" : 0
                }
            ]
        },
        {
            "name" : "Curve.001",
            "primitives" : [
                {
                    "attributes" : {
                        "POSITION" : 4,
                        "NORMAL" : 5,
                        "TEXCOORD_0" : 6
                    },
                    "indices" : 7,
                    "material" : 0
                }
            ]
        }
    ],
    "accessors" : [
        {
            "bufferView" : 0,
            "componentType" : 5126,
            "count" : 78,
            "max" : [
                0.037906039506196976,
                0,
                2.7755575615628914e-17
            ],
            "min" : [
                0.01895160973072052,
                -0.007041124161332846,
                -0.037658195942640305
            ],
            "type" : "VEC3"
        },
        {
            "bufferView" : 1,
            "componentType" : 5126,
            "count" : 78,
            "type" : "VEC3"
        },
        {
            "bufferView" : 2,
            "componentType" : 5126,
            "count" : 78,
            "type" : "VEC2"
        },
        {
            "bufferView" : 3,
            "componentType" : 5123,
            "count" : 132,
            "type" : "SCALAR"
        },
        {
            "bufferView" : 4,
            "componentType" : 5126,
            "count" : 78,
            "max" : [
                0.01895160973072052,
                0,
                2.7755575615628914e-17
            ],
            "min" : [
                0,
                -0.007041124161332846,
                -0.037658195942640305
            ],
            "type" : "VEC3"
        },
        {
            "bufferView" : 5,
            "componentType" : 5126,
            "count" : 78,
            "type" : "VEC3"
        },
        {
            "bufferView" : 6,
            "componentType" : 5126,
            "count" : 78,
            "type" : "VEC2"
        },
        {
            "bufferView" : 7,
            "componentType" : 5123,
            "count" : 132,
            "type" : "SCALAR"
        }
    ],
    "bufferViews" : [
        {
            "buffer" : 0,
            "byteLength" : 936,
            "byteOffset" : 0
        },
        {
            "buffer" : 0,
            "byteLength" : 936,
            "byteOffset" : 936
        },
        {
            "buffer" : 0,
            "byteLength" : 624,
            "byteOffset" : 1872
        },
        {
            "buffer" : 0,
            "byteLength" : 264,
            "byteOffset" : 2496
        },
        {
            "buffer" : 0,
            "byteLength" : 936,
            "byteOffset" : 2760
        },
        {
            "buffer" : 0,
            "byteLength" : 936,
            "byteOffset" : 3696
        },
        {
            "buffer" : 0,
            "byteLength" : 624,
            "byteOffset" : 4632
        },
        {
            "buffer" : 0,
            "byteLength" : 264,
            "byteOffset" : 5256
        }
    ],
    "buffers" : [
        {
            "byteLength" : 5520,
            "uri" : "untitled.bin"
        }
    ]
}
